<svg xmlns="http://www.w3.org/2000/svg" xmlns:xlink="http://www.w3.org/1999/xlink" xmlns:lucid="lucid" width="1521.5" height="734.65"><g transform="translate(-170.974197935528 -105.34591485199257)" lucid:page-tab-id="0_0"><path d="M720 266.04a6 6 0 0 1 6-6h356.04a6 6 0 0 1 6 6v124a6 6 0 0 1-6 6H726a6 6 0 0 1-6-6z" fill="#fff"/><path d="M720 266.04a6 6 0 0 1 6-6h356.04a6 6 0 0 1 6 6v124a6 6 0 0 1-6 6H726a6 6 0 0 1-6-6zM720 300.04h368.04" stroke="#5e5e5e" stroke-width="3" fill="none"/><use xlink:href="#a" transform="matrix(1,0,0,1,730,260.0390205012843) translate(116.6 23.6)"/><use xlink:href="#b" transform="matrix(1,0,0,1,725,302.5390205012843) translate(0 17.1)"/><use xlink:href="#c" transform="matrix(1,0,0,1,725,302.5390205012843) translate(26.900000000000002 17.1)"/><use xlink:href="#d" transform="matrix(1,0,0,1,725,334.5390205012843) translate(0 17.1)"/><use xlink:href="#c" transform="matrix(1,0,0,1,725,334.5390205012843) translate(69.85000000000001 17.1)"/><use xlink:href="#e" transform="matrix(1,0,0,1,725,366.5390205012843) translate(0 17.1)"/><use xlink:href="#f" transform="matrix(1,0,0,1,725,366.5390205012843) translate(45 17.1)"/><path d="M638.52 556.1h-14a6 6 0 0 1-6-6V353.98a6 6 0 0 1 6-6h75.2" stroke="#5e5e5e" stroke-width="2" fill="none"/><path d="M638.52 546.1v20M658.52 556.1h-20" stroke="#5e5e5e" stroke-width="2" fill="#fff"/><path d="M718.1 357.97l-20-10 20-10" stroke="#5e5e5e" stroke-width="2" fill="#fff" fill-opacity="0"/><path d="M718.1 347.97h-20" stroke="#5e5e5e" stroke-width="2" fill="#fff"/><path d="M517.2 588.03h122.5" stroke="#5e5e5e" stroke-width="2" fill="none"/><path d="M517.2 598.03v-20M497.2 588.03h20" stroke="#5e5e5e" stroke-width="2" fill="#fff"/><path d="M658.08 598.03l-20-10 20-10" stroke="#5e5e5e" stroke-width="2" fill="#fff" fill-opacity="0"/><path d="M658.08 588.03h-20" stroke="#5e5e5e" stroke-width="2" fill="#fff"/><path d="M406.95 772h109.8a6 6 0 0 0 6-6V625.95a6 6 0 0 1 6-6h110.97" stroke="#5e5e5e" stroke-width="2" fill="none"/><path d="M406.95 782v-20M386.95 772h20" stroke="#5e5e5e" stroke-width="2" fill="#fff"/><path d="M658.1 629.95l-20-10 20-10" stroke="#5e5e5e" stroke-width="2" fill="#fff" fill-opacity="0"/><path d="M658.1 619.95h-20" stroke="#5e5e5e" stroke-width="2" fill="#fff"/><path d="M1109.5 316.08h84.5a.02.02 0 0 0 0-.02.02.02 0 0 1 .03-.02h85.68" stroke="#5e5e5e" stroke-width="2" fill="none"/><path d="M1109.5 326.08v-20M1089.5 316.08h20" stroke="#5e5e5e" stroke-width="2" fill="#fff"/><path d="M1298.08 326.04l-20-10 20-10" stroke="#5e5e5e" stroke-width="2" fill="#fff" fill-opacity="0"/><path d="M1298.08 316.04h-20" stroke="#5e5e5e" stroke-width="2" fill="#fff"/><path d="M1661.44 539.5h14.03a6 6 0 0 0 6-6V354.2a6 6 0 0 0-6-6h-15.18" stroke="#5e5e5e" stroke-width="2" fill="none"/><path d="M1661.44 549.5v-20M1641.44 539.5h20" stroke="#5e5e5e" stroke-width="2" fill="#fff"/><path d="M1641.92 338.2l20 10-20 10" stroke="#5e5e5e" stroke-width="2" fill="#fff" fill-opacity="0"/><path d="M1641.92 348.2h20" stroke="#5e5e5e" stroke-width="2" fill="#fff"/><g class="lucid-layer" lucid:layer-id="FNVWL52TSeS6" display="block"><path d="M190.97 131.35a6 6 0 0 1 6-6h307.3a6 6 0 0 1 6 6v222a6 6 0 0 1-6 6h-307.3a6 6 0 0 1-6-6z" fill="#fff"/><path d="M190.97 131.35a6 6 0 0 1 6-6h307.3a6 6 0 0 1 6 6v222a6 6 0 0 1-6 6h-307.3a6 6 0 0 1-6-6zM190.97 165.35h319.3" stroke="#5e5e5e" stroke-width="3" fill="none"/><use xlink:href="#g" transform="matrix(1,0,0,1,200.974197935528,125.34591485199257) translate(119.05 23.6)"/><use xlink:href="#b" transform="matrix(1,0,0,1,195.974197935528,167.84591485199257) translate(0 17.1)"/><use xlink:href="#c" transform="matrix(1,0,0,1,195.974197935528,167.84591485199257) translate(26.900000000000002 17.1)"/><use xlink:href="#h" transform="matrix(1,0,0,1,195.974197935528,199.84591485199257) translate(0 17.1)"/><use xlink:href="#i" transform="matrix(1,0,0,1,195.974197935528,199.84591485199257) translate(93.85000000000001 17.1)"/><use xlink:href="#j" transform="matrix(1,0,0,1,195.974197935528,231.84591485199257) translate(0 17.1)"/><use xlink:href="#i" transform="matrix(1,0,0,1,195.974197935528,231.84591485199257) translate(56.95 17.1)"/><use xlink:href="#k" transform="matrix(1,0,0,1,195.974197935528,263.8459148519926) translate(0 18.544444444444444)"/><use xlink:href="#l" transform="matrix(1,0,0,1,195.974197935528,263.8459148519926) translate(56.18456790123457 18.544444444444444)"/><g><use xlink:href="#m" transform="matrix(1,0,0,1,195.974197935528,297.8459148519926) translate(0 17.1)"/><use xlink:href="#n" transform="matrix(1,0,0,1,195.974197935528,297.8459148519926) translate(86.9 17.1)"/></g><g><use xlink:href="#o" transform="matrix(1,0,0,1,195.974197935528,329.8459148519926) translate(0 17.1)"/><use xlink:href="#n" transform="matrix(1,0,0,1,195.974197935528,329.8459148519926) translate(147.85000000000002 17.1)"/></g><g class="lucid-layer" lucid:layer-id="BOVWO8gjpNox" display="block"><g class="lucid-layer" lucid:layer-id="1OVWFHIUgW6j" display="block"><path d="M205.5 538a6 6 0 0 1 6-6h278.25a6 6 0 0 1 6 6v92a6 6 0 0 1-6 6H211.5a6 6 0 0 1-6-6z" fill="#fff"/><path d="M205.5 538a6 6 0 0 1 6-6h278.25a6 6 0 0 1 6 6v92a6 6 0 0 1-6 6H211.5a6 6 0 0 1-6-6zM205.5 572h290.25" stroke="#5e5e5e" stroke-width="3" fill="none"/><use xlink:href="#p" transform="matrix(1,0,0,1,215.48709896776379,531.9897350721067) translate(78.3 23.6)"/><use xlink:href="#b" transform="matrix(1,0,0,1,210.48709896776379,574.4897350721067) translate(0 17.1)"/><use xlink:href="#c" transform="matrix(1,0,0,1,210.48709896776379,574.4897350721067) translate(26.900000000000002 17.1)"/><g><use xlink:href="#q" transform="matrix(1,0,0,1,210.48709896776379,606.4897350721067) translate(0 17.1)"/><use xlink:href="#i" transform="matrix(1,0,0,1,210.48709896776379,606.4897350721067) translate(57.900000000000006 17.1)"/></g></g></g></g><g class="lucid-layer" lucid:layer-id="-QVW9G8~97wc" display="block"><path d="M1300 490a6 6 0 0 1 6-6h328a6 6 0 0 1 6 6v220a6 6 0 0 1-6 6h-328a6 6 0 0 1-6-6z" fill="#fff"/><path d="M1300 490a6 6 0 0 1 6-6h328a6 6 0 0 1 6 6v220a6 6 0 0 1-6 6h-328a6 6 0 0 1-6-6zM1300 524h340" stroke="#5e5e5e" stroke-width="3" fill="none"/><use xlink:href="#r" transform="matrix(1,0,0,1,1310,484) translate(109.625 23.6)"/><use xlink:href="#b" transform="matrix(1,0,0,1,1305,526.5) translate(0 17.1)"/><use xlink:href="#c" transform="matrix(1,0,0,1,1305,526.5) translate(26.900000000000002 17.1)"/><use xlink:href="#s" transform="matrix(1,0,0,1,1305,558.5) translate(0 17.1)"/><use xlink:href="#i" transform="matrix(1,0,0,1,1305,558.5) translate(52.85000000000001 17.1)"/><use xlink:href="#t" transform="matrix(1,0,0,1,1305,590.5) translate(0 17.1)"/><use xlink:href="#u" transform="matrix(1,0,0,1,1305,590.5) translate(42.95 17.1)"/><g><use xlink:href="#v" transform="matrix(1,0,0,1,1305,622.5) translate(0 17.1)"/><use xlink:href="#n" transform="matrix(1,0,0,1,1305,622.5) translate(54.95 17.1)"/></g><g><use xlink:href="#w" transform="matrix(1,0,0,1,1305,654.5) translate(0 17.1)"/><use xlink:href="#x" transform="matrix(1,0,0,1,1305,654.5) translate(48.9 17.1)"/><use xlink:href="#y" transform="matrix(1,0,0,1,1305,654.5) translate(87.85 17.1)"/><use xlink:href="#z" transform="matrix(1,0,0,1,1305,654.5) translate(175.65 17.1)"/><use xlink:href="#A" transform="matrix(1,0,0,1,1305,654.5) translate(195.65 17.1)"/><use xlink:href="#B" transform="matrix(1,0,0,1,1305,654.5) translate(247.60000000000002 17.1)"/></g><g><use xlink:href="#C" transform="matrix(1,0,0,1,1305,686.5) translate(0 17.1)"/><use xlink:href="#D" transform="matrix(1,0,0,1,1305,686.5) translate(52 17.1)"/></g></g><g class="lucid-layer" lucid:layer-id="ZTVW~tZ4Amlv" display="block"><path d="M205.5 722a6 6 0 0 1 6-6h168a6 6 0 0 1 6 6v92a6 6 0 0 1-6 6h-168a6 6 0 0 1-6-6z" fill="#fff"/><path d="M205.5 722a6 6 0 0 1 6-6h168a6 6 0 0 1 6 6v92a6 6 0 0 1-6 6h-168a6 6 0 0 1-6-6zM205.5 756h180" stroke="#5e5e5e" stroke-width="3" fill="none"/><use xlink:href="#E" transform="matrix(1,0,0,1,215.48709896776379,716) translate(49.05 23.6)"/><use xlink:href="#b" transform="matrix(1,0,0,1,210.48709896776379,758.5) translate(0 17.1)"/><use xlink:href="#c" transform="matrix(1,0,0,1,210.48709896776379,758.5) translate(26.900000000000002 17.1)"/><g><use xlink:href="#q" transform="matrix(1,0,0,1,210.48709896776379,790.5) translate(0 17.1)"/><use xlink:href="#i" transform="matrix(1,0,0,1,210.48709896776379,790.5) translate(57.900000000000006 17.1)"/></g></g><g class="lucid-layer" lucid:layer-id="UUVW5iXIpapI" display="block"><path d="M660 506a6 6 0 0 1 6-6h469.28a6 6 0 0 1 6 6v188a6 6 0 0 1-6 6H666a6 6 0 0 1-6-6z" fill="#fff"/><path d="M660 506a6 6 0 0 1 6-6h469.28a6 6 0 0 1 6 6v188a6 6 0 0 1-6 6H666a6 6 0 0 1-6-6zM660 540h481.28" stroke="#5e5e5e" stroke-width="3" fill="none"/><use xlink:href="#F" transform="matrix(1,0,0,1,670,500) translate(201.725 23.6)"/><use xlink:href="#b" transform="matrix(1,0,0,1,665,542.5) translate(0 17.1)"/><use xlink:href="#c" transform="matrix(1,0,0,1,665,542.5) translate(26.900000000000002 17.1)"/><use xlink:href="#G" transform="matrix(1,0,0,1,665,574.5) translate(0 17.1)"/><use xlink:href="#H" transform="matrix(1,0,0,1,665,574.5) translate(83.80000000000001 17.1)"/><use xlink:href="#I" transform="matrix(1,0,0,1,665,574.5) translate(132.65 17.1)"/><use xlink:href="#J" transform="matrix(1,0,0,1,665,574.5) translate(219.3 17.1)"/><g><use xlink:href="#K" transform="matrix(1,0,0,1,665,606.5) translate(0 17.1)"/><use xlink:href="#H" transform="matrix(1,0,0,1,665,606.5) translate(77.80000000000001 17.1)"/><use xlink:href="#I" transform="matrix(1,0,0,1,665,606.5) translate(126.65 17.1)"/><use xlink:href="#J" transform="matrix(1,0,0,1,665,606.5) translate(213.3 17.1)"/></g><g><use xlink:href="#t" transform="matrix(1,0,0,1,665,638.5) translate(0 17.1)"/><use xlink:href="#u" transform="matrix(1,0,0,1,665,638.5) translate(42.95 17.1)"/></g><g><use xlink:href="#w" transform="matrix(1,0,0,1,665,670.5) translate(0 17.1)"/><use xlink:href="#x" transform="matrix(1,0,0,1,665,670.5) translate(48.9 17.1)"/><use xlink:href="#y" transform="matrix(1,0,0,1,665,670.5) translate(87.85 17.1)"/><use xlink:href="#z" transform="matrix(1,0,0,1,665,670.5) translate(175.65 17.1)"/><use xlink:href="#L" transform="matrix(1,0,0,1,665,670.5) translate(195.65 17.1)"/></g></g><g class="lucid-layer" lucid:layer-id="V1VWKmqgVqf6" display="block"><path d="M1300 234.04a6 6 0 0 1 6-6h328a6 6 0 0 1 6 6v188a6 6 0 0 1-6 6h-328a6 6 0 0 1-6-6z" fill="#fff"/><path d="M1300 234.04a6 6 0 0 1 6-6h328a6 6 0 0 1 6 6v188a6 6 0 0 1-6 6h-328a6 6 0 0 1-6-6zM1300 268.04h340" stroke="#5e5e5e" stroke-width="3" fill="none"/><use xlink:href="#M" transform="matrix(1,0,0,1,1310,228.0390205012843) translate(52.72500000000001 23.6)"/><use xlink:href="#b" transform="matrix(1,0,0,1,1305,270.5390205012843) translate(0 17.1)"/><use xlink:href="#c" transform="matrix(1,0,0,1,1305,270.5390205012843) translate(26.900000000000002 17.1)"/><use xlink:href="#N" transform="matrix(1,0,0,1,1305,302.5390205012843) translate(0 17.1)"/><use xlink:href="#c" transform="matrix(1,0,0,1,1305,302.5390205012843) translate(126.75000000000001 17.1)"/><use xlink:href="#O" transform="matrix(1,0,0,1,1305,334.5390205012843) translate(0 17.1)"/><use xlink:href="#c" transform="matrix(1,0,0,1,1305,334.5390205012843) translate(103.65000000000002 17.1)"/><g><use xlink:href="#P" transform="matrix(1,0,0,1,1305,366.5390205012843) translate(0 17.1)"/><use xlink:href="#D" transform="matrix(1,0,0,1,1305,366.5390205012843) translate(72.95 17.1)"/></g><g><use xlink:href="#Q" transform="matrix(1,0,0,1,1305,398.5390205012843) translate(0 17.1)"/><use xlink:href="#R" transform="matrix(1,0,0,1,1305,398.5390205012843) translate(43.95 17.1)"/></g></g><defs><path d="M240 0l2-218c-23 76-54 145-80 218h-23L58-218 59 0H30v-248h44l77 211c21-75 51-140 76-211h43V0h-30" id="S"/><path d="M140-251c81 0 123 46 123 126C263-46 219 4 140 4 59 4 17-45 17-125s42-126 123-126zm0 227c63 0 89-41 89-101s-29-99-89-99c-61 0-89 39-89 99S79-25 140-24" id="T"/><path d="M137 0h-34L2-248h35l83 218 83-218h36" id="U"/><path d="M30 0v-248h187v28H63v79h144v27H63v87h162V0H30" id="V"/><path d="M190 0L58-211 59 0H30v-248h39L202-35l-2-213h31V0h-41" id="W"/><path d="M127-220V0H93v-220H8v-28h204v28h-85" id="X"/><path d="M185-189c-5-48-123-54-124 2 14 75 158 14 163 119 3 78-121 87-175 55-17-10-28-26-33-46l33-7c5 56 141 63 141-1 0-78-155-14-162-118-5-82 145-84 179-34 5 7 8 16 11 25" id="Y"/><g id="a"><use transform="matrix(0.05,0,0,0.05,0,0)" xlink:href="#S"/><use transform="matrix(0.05,0,0,0.05,14.950000000000001,0)" xlink:href="#T"/><use transform="matrix(0.05,0,0,0.05,28.950000000000003,0)" xlink:href="#U"/><use transform="matrix(0.05,0,0,0.05,40.95,0)" xlink:href="#V"/><use transform="matrix(0.05,0,0,0.05,52.95,0)" xlink:href="#S"/><use transform="matrix(0.05,0,0,0.05,67.9,0)" xlink:href="#V"/><use transform="matrix(0.05,0,0,0.05,79.9,0)" xlink:href="#W"/><use transform="matrix(0.05,0,0,0.05,92.85000000000001,0)" xlink:href="#X"/><use transform="matrix(0.05,0,0,0.05,103.80000000000001,0)" xlink:href="#Y"/></g><path d="M25-224v-37h50v37H25zM25 0v-190h50V0H25" id="Z"/><path d="M88-194c31-1 46 15 58 34l-1-101h50l1 261h-48c-2-10 0-23-3-31C134-8 116 4 84 4 32 4 16-41 15-95c0-56 19-97 73-99zm17 164c33 0 40-30 41-66 1-37-9-64-41-64s-38 30-39 65c0 43 13 65 39 65" id="aa"/><path d="M35-132v-50h50v50H35zM35 0v-49h50V0H35" id="ab"/><g id="b"><use transform="matrix(0.05,0,0,0.05,0,0)" xlink:href="#Z"/><use transform="matrix(0.05,0,0,0.05,5,0)" xlink:href="#aa"/><use transform="matrix(0.05,0,0,0.05,15.950000000000001,0)" xlink:href="#ab"/></g><path d="M238-95c0 69-44 99-111 99C63 4 22-25 22-93v-155h51v151c-1 38 19 59 55 60 90 1 49-130 58-211h52v153" id="ac"/><path d="M24 0v-248h52V0H24" id="ad"/><path d="M24-248c120-7 223 5 221 122C244-46 201 0 124 0H24v-248zM76-40c74 7 117-18 117-86 0-67-45-88-117-82v168" id="ae"/><g id="c"><use transform="matrix(0.05,0,0,0.05,0,0)" xlink:href="#ac"/><use transform="matrix(0.05,0,0,0.05,12.950000000000001,0)" xlink:href="#ac"/><use transform="matrix(0.05,0,0,0.05,25.900000000000002,0)" xlink:href="#ad"/><use transform="matrix(0.05,0,0,0.05,30.900000000000002,0)" xlink:href="#ae"/></g><path d="M135-150c-39-12-60 13-60 57V0H25l-1-190h47c2 13-1 29 3 40 6-28 27-53 61-41v41" id="af"/><path d="M133-34C117-15 103 5 69 4 32 3 11-16 11-54c-1-60 55-63 116-61 1-26-3-47-28-47-18 1-26 9-28 27l-52-2c7-38 36-58 82-57s74 22 75 68l1 82c-1 14 12 18 25 15v27c-30 8-71 5-69-32zm-48 3c29 0 43-24 42-57-32 0-66-3-65 30 0 17 8 27 23 27" id="ag"/><path d="M115-3C79 11 28 4 28-45v-112H4v-33h27l15-45h31v45h36v33H77v99c-1 23 16 31 38 25v30" id="ah"/><path d="M185-48c-13 30-37 53-82 52C43 2 14-33 14-96s30-98 90-98c62 0 83 45 84 108H66c0 31 8 55 39 56 18 0 30-7 34-22zm-45-69c5-46-57-63-70-21-2 6-4 13-4 21h74" id="ai"/><path d="M-4 44V30h207v14H-4" id="aj"/><g id="d"><use transform="matrix(0.05,0,0,0.05,0,0)" xlink:href="#af"/><use transform="matrix(0.05,0,0,0.05,7,0)" xlink:href="#ag"/><use transform="matrix(0.05,0,0,0.05,17,0)" xlink:href="#ah"/><use transform="matrix(0.05,0,0,0.05,22.95,0)" xlink:href="#ai"/><use transform="matrix(0.05,0,0,0.05,32.95,0)" xlink:href="#aj"/><use transform="matrix(0.05,0,0,0.05,42.95,0)" xlink:href="#Z"/><use transform="matrix(0.05,0,0,0.05,47.95,0)" xlink:href="#aa"/><use transform="matrix(0.05,0,0,0.05,58.900000000000006,0)" xlink:href="#ab"/></g><path d="M85-194c31 0 48 13 60 33l-1-100h32l1 261h-30c-2-10 0-23-3-31C134-8 116 4 85 4 32 4 16-35 15-94c0-66 23-100 70-100zm9 24c-40 0-46 34-46 75 0 40 6 74 45 74 42 0 51-32 51-76 0-42-9-74-50-73" id="ak"/><path d="M141-36C126-15 110 5 73 4 37 3 15-17 15-53c-1-64 63-63 125-63 3-35-9-54-41-54-24 1-41 7-42 31l-33-3c5-37 33-52 76-52 45 0 72 20 72 64v82c-1 20 7 32 28 27v20c-31 9-61-2-59-35zM48-53c0 20 12 33 32 33 41-3 63-29 60-74-43 2-92-5-92 41" id="al"/><path d="M59-47c-2 24 18 29 38 22v24C64 9 27 4 27-40v-127H5v-23h24l9-43h21v43h35v23H59v120" id="am"/><path d="M100-194c63 0 86 42 84 106H49c0 40 14 67 53 68 26 1 43-12 49-29l28 8c-11 28-37 45-77 45C44 4 14-33 15-96c1-61 26-98 85-98zm52 81c6-60-76-77-97-28-3 7-6 17-6 28h103" id="an"/><path d="M33-154v-36h34v36H33zM33 0v-36h34V0H33" id="ao"/><g id="e"><use transform="matrix(0.05,0,0,0.05,0,0)" xlink:href="#ak"/><use transform="matrix(0.05,0,0,0.05,10,0)" xlink:href="#al"/><use transform="matrix(0.05,0,0,0.05,20,0)" xlink:href="#am"/><use transform="matrix(0.05,0,0,0.05,25,0)" xlink:href="#an"/><use transform="matrix(0.05,0,0,0.05,35,0)" xlink:href="#ao"/></g><path d="M30-248c118-7 216 8 213 122C240-48 200 0 122 0H30v-248zM63-27c89 8 146-16 146-99s-60-101-146-95v194" id="ap"/><path d="M24-231v-30h32v30H24zM24 0v-190h32V0H24" id="aq"/><path d="M210-169c-67 3-38 105-44 169h-31v-121c0-29-5-50-35-48C34-165 62-65 56 0H25l-1-190h30c1 10-1 24 2 32 10-44 99-50 107 0 11-21 27-35 58-36 85-2 47 119 55 194h-31v-121c0-29-5-49-35-48" id="ar"/><g id="f"><use transform="matrix(0.05,0,0,0.05,0,0)" xlink:href="#ap"/><use transform="matrix(0.05,0,0,0.05,12.950000000000001,0)" xlink:href="#al"/><use transform="matrix(0.05,0,0,0.05,22.950000000000003,0)" xlink:href="#am"/><use transform="matrix(0.05,0,0,0.05,27.950000000000003,0)" xlink:href="#an"/><use transform="matrix(0.05,0,0,0.05,37.95,0)" xlink:href="#am"/><use transform="matrix(0.05,0,0,0.05,42.95,0)" xlink:href="#aq"/><use transform="matrix(0.05,0,0,0.05,46.900000000000006,0)" xlink:href="#ar"/><use transform="matrix(0.05,0,0,0.05,61.85,0)" xlink:href="#an"/></g><path d="M232-93c-1 65-40 97-104 97C67 4 28-28 28-90v-158h33c8 89-33 224 67 224 102 0 64-133 71-224h33v155" id="as"/><path d="M233-177c-1 41-23 64-60 70L243 0h-38l-65-103H63V0H30v-248c88 3 205-21 203 71zM63-129c60-2 137 13 137-47 0-61-80-42-137-45v92" id="at"/><g id="g"><use transform="matrix(0.05,0,0,0.05,0,0)" xlink:href="#as"/><use transform="matrix(0.05,0,0,0.05,12.950000000000001,0)" xlink:href="#Y"/><use transform="matrix(0.05,0,0,0.05,24.950000000000003,0)" xlink:href="#V"/><use transform="matrix(0.05,0,0,0.05,36.95,0)" xlink:href="#at"/><use transform="matrix(0.05,0,0,0.05,49.900000000000006,0)" xlink:href="#Y"/></g><path d="M135-194c87-1 58 113 63 194h-50c-7-57 23-157-34-157-59 0-34 97-39 157H25l-1-190h47c2 12-1 28 3 38 12-26 28-41 61-42" id="au"/><path d="M190-63c-7 42-38 67-86 67-59 0-84-38-90-98-12-110 154-137 174-36l-49 2c-2-19-15-32-35-32-30 0-35 28-38 64-6 74 65 87 74 30" id="av"/><path d="M147 0L96-86 75-71V0H25v-261h50v150l67-79h53l-66 74L201 0h-54" id="aw"/><path d="M220-157c-53 9-28 100-34 157h-49v-107c1-27-5-49-29-50C55-147 81-57 75 0H25l-1-190h47c2 12-1 28 3 38 10-53 101-56 108 0 13-22 24-43 59-42 82 1 51 116 57 194h-49v-107c-1-25-5-48-29-50" id="ax"/><g id="h"><use transform="matrix(0.05,0,0,0.05,0,0)" xlink:href="#au"/><use transform="matrix(0.05,0,0,0.05,10.950000000000001,0)" xlink:href="#Z"/><use transform="matrix(0.05,0,0,0.05,15.950000000000001,0)" xlink:href="#av"/><use transform="matrix(0.05,0,0,0.05,25.950000000000003,0)" xlink:href="#aw"/><use transform="matrix(0.05,0,0,0.05,35.95,0)" xlink:href="#au"/><use transform="matrix(0.05,0,0,0.05,46.900000000000006,0)" xlink:href="#ag"/><use transform="matrix(0.05,0,0,0.05,56.900000000000006,0)" xlink:href="#ax"/><use transform="matrix(0.05,0,0,0.05,72.9,0)" xlink:href="#ai"/><use transform="matrix(0.05,0,0,0.05,82.9,0)" xlink:href="#ab"/></g><path d="M169-182c-1-43-94-46-97-3 18 66 151 10 154 114 3 95-165 93-204 36-6-8-10-19-12-30l50-8c3 46 112 56 116 5-17-69-150-10-154-114-4-87 153-88 188-35 5 8 8 18 10 28" id="ay"/><path d="M195-6C206 82 75 100 31 46c-4-6-6-13-8-21l49-6c3 16 16 24 34 25 40 0 42-37 40-79-11 22-30 35-61 35-53 0-70-43-70-97 0-56 18-96 73-97 30 0 46 14 59 34l2-30h47zm-90-29c32 0 41-27 41-63 0-35-9-62-40-62-32 0-39 29-40 63 0 36 9 62 39 62" id="az"/><g id="i"><use transform="matrix(0.05,0,0,0.05,0,0)" xlink:href="#ay"/><use transform="matrix(0.05,0,0,0.05,12,0)" xlink:href="#ah"/><use transform="matrix(0.05,0,0,0.05,17.95,0)" xlink:href="#af"/><use transform="matrix(0.05,0,0,0.05,24.95,0)" xlink:href="#Z"/><use transform="matrix(0.05,0,0,0.05,29.950000000000003,0)" xlink:href="#au"/><use transform="matrix(0.05,0,0,0.05,40.9,0)" xlink:href="#az"/></g><path d="M25 0v-261h50V0H25" id="aA"/><g id="j"><use transform="matrix(0.05,0,0,0.05,0,0)" xlink:href="#ai"/><use transform="matrix(0.05,0,0,0.05,10,0)" xlink:href="#ax"/><use transform="matrix(0.05,0,0,0.05,26,0)" xlink:href="#ag"/><use transform="matrix(0.05,0,0,0.05,36,0)" xlink:href="#Z"/><use transform="matrix(0.05,0,0,0.05,41,0)" xlink:href="#aA"/><use transform="matrix(0.05,0,0,0.05,46,0)" xlink:href="#ab"/></g><path d="M117-194c89-4 53 116 60 194h-32v-121c0-31-8-49-39-48C34-167 62-67 57 0H25l-1-190h30c1 10-1 24 2 32 11-22 29-35 61-36" id="aB"/><g id="k"><use transform="matrix(0.05,0,0,0.05,0,0)" xlink:href="#aB"/><use transform="matrix(0.05,0,0,0.05,10,0)" xlink:href="#al"/><use transform="matrix(0.05,0,0,0.05,20,0)" xlink:href="#ar"/><use transform="matrix(0.05,0,0,0.05,34.95,0)" xlink:href="#an"/><use transform="matrix(0.056172839506172835,0,0,0.056172839506172835,44.95,0)" xlink:href="#ao"/></g><path d="M114-163C36-179 61-72 57 0H25l-1-190h30c1 12-1 29 2 39 6-27 23-49 58-41v29" id="aC"/><path d="M177-190C167-65 218 103 67 71c-23-6-38-20-44-43l32-5c15 47 100 32 89-28v-30C133-14 115 1 83 1 29 1 15-40 15-95c0-56 16-97 71-98 29-1 48 16 59 35 1-10 0-23 2-32h30zM94-22c36 0 50-32 50-73 0-42-14-75-50-75-39 0-46 34-46 75s6 73 46 73" id="aD"/><g id="l"><use transform="matrix(0.056172839506172835,0,0,0.056172839506172835,0,0)" xlink:href="#Y"/><use transform="matrix(0.056172839506172835,0,0,0.056172839506172835,13.481481481481481,0)" xlink:href="#am"/><use transform="matrix(0.056172839506172835,0,0,0.056172839506172835,19.098765432098766,0)" xlink:href="#aC"/><use transform="matrix(0.056172839506172835,0,0,0.056172839506172835,25.78333333333333,0)" xlink:href="#aq"/><use transform="matrix(0.056172839506172835,0,0,0.056172839506172835,30.220987654320986,0)" xlink:href="#aB"/><use transform="matrix(0.056172839506172835,0,0,0.056172839506172835,41.45555555555555,0)" xlink:href="#aD"/></g><path d="M115-194c55 1 70 41 70 98S169 2 115 4C84 4 66-9 55-30l1 105H24l-1-265h31l2 30c10-21 28-34 59-34zm-8 174c40 0 45-34 45-75s-6-73-45-74c-42 0-51 32-51 76 0 43 10 73 51 73" id="aE"/><path d="M135-143c-3-34-86-38-87 0 15 53 115 12 119 90S17 21 10-45l28-5c4 36 97 45 98 0-10-56-113-15-118-90-4-57 82-63 122-42 12 7 21 19 24 35" id="aF"/><path d="M206 0h-36l-40-164L89 0H53L-1-190h32L70-26l43-164h34l41 164 42-164h31" id="aG"/><path d="M100-194c62-1 85 37 85 99 1 63-27 99-86 99S16-35 15-95c0-66 28-99 85-99zM99-20c44 1 53-31 53-75 0-43-8-75-51-75s-53 32-53 75 10 74 51 75" id="aH"/><g id="m"><use transform="matrix(0.05,0,0,0.05,0,0)" xlink:href="#aE"/><use transform="matrix(0.05,0,0,0.05,10,0)" xlink:href="#al"/><use transform="matrix(0.05,0,0,0.05,20,0)" xlink:href="#aF"/><use transform="matrix(0.05,0,0,0.05,29,0)" xlink:href="#aF"/><use transform="matrix(0.05,0,0,0.05,38,0)" xlink:href="#aG"/><use transform="matrix(0.05,0,0,0.05,50.95,0)" xlink:href="#aH"/><use transform="matrix(0.05,0,0,0.05,60.95,0)" xlink:href="#aC"/><use transform="matrix(0.05,0,0,0.05,66.9,0)" xlink:href="#ak"/><use transform="matrix(0.05,0,0,0.05,76.9,0)" xlink:href="#ao"/></g><g id="n"><use transform="matrix(0.05,0,0,0.05,0,0)" xlink:href="#Y"/><use transform="matrix(0.05,0,0,0.05,12,0)" xlink:href="#am"/><use transform="matrix(0.05,0,0,0.05,17,0)" xlink:href="#aC"/><use transform="matrix(0.05,0,0,0.05,22.95,0)" xlink:href="#aq"/><use transform="matrix(0.05,0,0,0.05,26.899999999999995,0)" xlink:href="#aB"/><use transform="matrix(0.05,0,0,0.05,36.9,0)" xlink:href="#aD"/></g><path d="M-5 72V49h209v23H-5" id="aI"/><g id="o"><use transform="matrix(0.05,0,0,0.05,0,0)" xlink:href="#aC"/><use transform="matrix(0.05,0,0,0.05,5.95,0)" xlink:href="#an"/><use transform="matrix(0.05,0,0,0.05,15.949999999999998,0)" xlink:href="#aE"/><use transform="matrix(0.05,0,0,0.05,25.950000000000003,0)" xlink:href="#an"/><use transform="matrix(0.05,0,0,0.05,35.95,0)" xlink:href="#al"/><use transform="matrix(0.05,0,0,0.05,45.95,0)" xlink:href="#am"/><use transform="matrix(0.05,0,0,0.05,50.95,0)" xlink:href="#aI"/><use transform="matrix(0.05,0,0,0.05,60.95,0)" xlink:href="#aE"/><use transform="matrix(0.05,0,0,0.05,70.95,0)" xlink:href="#al"/><use transform="matrix(0.05,0,0,0.05,80.95,0)" xlink:href="#aF"/><use transform="matrix(0.05,0,0,0.05,89.95,0)" xlink:href="#aF"/><use transform="matrix(0.05,0,0,0.05,98.95,0)" xlink:href="#aG"/><use transform="matrix(0.05,0,0,0.05,111.9,0)" xlink:href="#aH"/><use transform="matrix(0.05,0,0,0.05,121.9,0)" xlink:href="#aC"/><use transform="matrix(0.05,0,0,0.05,127.85000000000001,0)" xlink:href="#ak"/><use transform="matrix(0.05,0,0,0.05,137.85000000000002,0)" xlink:href="#ao"/></g><path d="M212-179c-10-28-35-45-73-45-59 0-87 40-87 99 0 60 29 101 89 101 43 0 62-24 78-52l27 14C228-24 195 4 139 4 59 4 22-46 18-125c-6-104 99-153 187-111 19 9 31 26 39 46" id="aJ"/><g id="p"><use transform="matrix(0.05,0,0,0.05,0,0)" xlink:href="#aJ"/><use transform="matrix(0.05,0,0,0.05,12.950000000000001,0)" xlink:href="#as"/><use transform="matrix(0.05,0,0,0.05,25.900000000000002,0)" xlink:href="#Y"/><use transform="matrix(0.05,0,0,0.05,37.900000000000006,0)" xlink:href="#X"/><use transform="matrix(0.05,0,0,0.05,48.50000000000001,0)" xlink:href="#T"/><use transform="matrix(0.05,0,0,0.05,62.5,0)" xlink:href="#S"/><use transform="matrix(0.05,0,0,0.05,77.45,0)" xlink:href="#V"/><use transform="matrix(0.05,0,0,0.05,89.45,0)" xlink:href="#at"/><use transform="matrix(0.05,0,0,0.05,102.4,0)" xlink:href="#Y"/></g><g id="q"><use transform="matrix(0.05,0,0,0.05,0,0)" xlink:href="#au"/><use transform="matrix(0.05,0,0,0.05,10.950000000000001,0)" xlink:href="#ag"/><use transform="matrix(0.05,0,0,0.05,20.950000000000003,0)" xlink:href="#ax"/><use transform="matrix(0.05,0,0,0.05,36.95,0)" xlink:href="#ai"/><use transform="matrix(0.05,0,0,0.05,46.95,0)" xlink:href="#ab"/></g><path d="M30-248c87 1 191-15 191 75 0 78-77 80-158 76V0H30v-248zm33 125c57 0 124 11 124-50 0-59-68-47-124-48v98" id="aK"/><g id="r"><use transform="matrix(0.05,0,0,0.05,0,0)" xlink:href="#aK"/><use transform="matrix(0.05,0,0,0.05,12,0)" xlink:href="#at"/><use transform="matrix(0.05,0,0,0.05,24.950000000000003,0)" xlink:href="#T"/><use transform="matrix(0.05,0,0,0.05,38.95,0)" xlink:href="#ap"/><use transform="matrix(0.05,0,0,0.05,51.900000000000006,0)" xlink:href="#as"/><use transform="matrix(0.05,0,0,0.05,64.85000000000001,0)" xlink:href="#aJ"/><use transform="matrix(0.05,0,0,0.05,77.80000000000001,0)" xlink:href="#X"/><use transform="matrix(0.05,0,0,0.05,88.75000000000001,0)" xlink:href="#Y"/></g><path d="M110-194c64 0 96 36 96 99 0 64-35 99-97 99-61 0-95-36-95-99 0-62 34-99 96-99zm-1 164c35 0 45-28 45-65 0-40-10-65-43-65-34 0-45 26-45 65 0 36 10 65 43 65" id="aL"/><g id="s"><use transform="matrix(0.05,0,0,0.05,0,0)" xlink:href="#av"/><use transform="matrix(0.05,0,0,0.05,10,0)" xlink:href="#aL"/><use transform="matrix(0.05,0,0,0.05,20.950000000000003,0)" xlink:href="#aa"/><use transform="matrix(0.05,0,0,0.05,31.900000000000006,0)" xlink:href="#ai"/><use transform="matrix(0.05,0,0,0.05,41.900000000000006,0)" xlink:href="#ab"/></g><path d="M143 0L79-87 56-68V0H24v-261h32v163l83-92h37l-77 82L181 0h-38" id="aM"/><g id="t"><use transform="matrix(0.05,0,0,0.05,0,0)" xlink:href="#aM"/><use transform="matrix(0.05,0,0,0.05,9,0)" xlink:href="#aq"/><use transform="matrix(0.05,0,0,0.05,12.949999999999998,0)" xlink:href="#aB"/><use transform="matrix(0.05,0,0,0.05,22.95,0)" xlink:href="#ak"/><use transform="matrix(0.05,0,0,0.05,32.95,0)" xlink:href="#ao"/></g><path d="M33 0v-248h34V0H33" id="aN"/><g id="u"><use transform="matrix(0.05,0,0,0.05,0,0)" xlink:href="#aN"/><use transform="matrix(0.05,0,0,0.05,5,0)" xlink:href="#aB"/><use transform="matrix(0.05,0,0,0.05,15,0)" xlink:href="#am"/><use transform="matrix(0.05,0,0,0.05,20,0)" xlink:href="#an"/><use transform="matrix(0.05,0,0,0.05,30,0)" xlink:href="#aD"/><use transform="matrix(0.05,0,0,0.05,40,0)" xlink:href="#an"/><use transform="matrix(0.05,0,0,0.05,50,0)" xlink:href="#aC"/></g><g id="v"><use transform="matrix(0.05,0,0,0.05,0,0)" xlink:href="#aB"/><use transform="matrix(0.05,0,0,0.05,10,0)" xlink:href="#al"/><use transform="matrix(0.05,0,0,0.05,20,0)" xlink:href="#ar"/><use transform="matrix(0.05,0,0,0.05,34.95,0)" xlink:href="#an"/><use transform="matrix(0.05,0,0,0.05,44.95,0)" xlink:href="#ao"/></g><path d="M96-169c-40 0-48 33-48 73s9 75 48 75c24 0 41-14 43-38l32 2c-6 37-31 61-74 61-59 0-76-41-82-99-10-93 101-131 147-64 4 7 5 14 7 22l-32 3c-4-21-16-35-41-35" id="aO"/><g id="w"><use transform="matrix(0.05,0,0,0.05,0,0)" xlink:href="#aE"/><use transform="matrix(0.05,0,0,0.05,10,0)" xlink:href="#aC"/><use transform="matrix(0.05,0,0,0.05,15.949999999999998,0)" xlink:href="#aq"/><use transform="matrix(0.05,0,0,0.05,19.9,0)" xlink:href="#aO"/><use transform="matrix(0.05,0,0,0.05,28.899999999999995,0)" xlink:href="#an"/><use transform="matrix(0.05,0,0,0.05,38.9,0)" xlink:href="#ao"/></g><path d="M101-234c-31-9-42 10-38 44h38v23H63V0H32v-167H5v-23h27c-7-52 17-82 69-68v24" id="aP"/><path d="M24 0v-261h32V0H24" id="aQ"/><g id="x"><use transform="matrix(0.05,0,0,0.05,0,0)" xlink:href="#aP"/><use transform="matrix(0.05,0,0,0.05,5,0)" xlink:href="#aQ"/><use transform="matrix(0.05,0,0,0.05,8.95,0)" xlink:href="#aH"/><use transform="matrix(0.05,0,0,0.05,18.95,0)" xlink:href="#al"/><use transform="matrix(0.05,0,0,0.05,28.950000000000003,0)" xlink:href="#am"/></g><path d="M87 75C49 33 22-17 22-94c0-76 28-126 65-167h31c-38 41-64 92-64 168S80 34 118 75H87" id="aR"/><g id="y"><use transform="matrix(0.05,0,0,0.05,0,0)" xlink:href="#aR"/><use transform="matrix(0.05,0,0,0.05,5.95,0)" xlink:href="#aE"/><use transform="matrix(0.05,0,0,0.05,15.949999999999998,0)" xlink:href="#aC"/><use transform="matrix(0.05,0,0,0.05,21.9,0)" xlink:href="#an"/><use transform="matrix(0.05,0,0,0.05,31.899999999999995,0)" xlink:href="#aO"/><use transform="matrix(0.05,0,0,0.05,40.9,0)" xlink:href="#aq"/><use transform="matrix(0.05,0,0,0.05,44.85,0)" xlink:href="#aF"/><use transform="matrix(0.05,0,0,0.05,53.85,0)" xlink:href="#aq"/><use transform="matrix(0.05,0,0,0.05,57.800000000000004,0)" xlink:href="#aH"/><use transform="matrix(0.05,0,0,0.05,67.80000000000001,0)" xlink:href="#aB"/><use transform="matrix(0.05,0,0,0.05,77.80000000000001,0)" xlink:href="#ao"/></g><path d="M134-131c28 9 52 24 51 62-1 50-34 73-85 73S17-19 16-69c0-36 21-54 49-61-75-25-45-126 34-121 46 3 78 18 79 63 0 33-17 51-44 57zm-34-11c31 1 46-15 46-44 0-28-17-43-47-42-29 0-46 13-45 42 1 28 16 44 46 44zm1 122c35 0 51-18 51-52 0-30-18-46-53-46-33 0-51 17-51 47 0 34 19 51 53 51" id="aS"/><path d="M68-38c1 34 0 65-14 84H32c9-13 17-26 17-46H33v-38h35" id="aT"/><g id="z"><use transform="matrix(0.05,0,0,0.05,0,0)" xlink:href="#aS"/><use transform="matrix(0.05,0,0,0.05,10,0)" xlink:href="#aT"/></g><g id="A"><use transform="matrix(0.05,0,0,0.05,0,0)" xlink:href="#aF"/><use transform="matrix(0.05,0,0,0.05,9,0)" xlink:href="#aO"/><use transform="matrix(0.05,0,0,0.05,18,0)" xlink:href="#al"/><use transform="matrix(0.05,0,0,0.05,28,0)" xlink:href="#aQ"/><use transform="matrix(0.05,0,0,0.05,31.950000000000003,0)" xlink:href="#an"/><use transform="matrix(0.05,0,0,0.05,41.95,0)" xlink:href="#ao"/></g><path d="M126-127c33 6 58 20 58 59 0 88-139 92-164 29-3-8-5-16-6-25l32-3c6 27 21 44 54 44 32 0 52-15 52-46 0-38-36-46-79-43v-28c39 1 72-4 72-42 0-27-17-43-46-43-28 0-47 15-49 41l-32-3c6-42 35-63 81-64 48-1 79 21 79 65 0 36-21 52-52 59" id="aU"/><path d="M33-261c38 41 65 92 65 168S71 34 33 75H2C39 34 66-17 66-93S39-220 2-261h31" id="aV"/><g id="B"><use transform="matrix(0.05,0,0,0.05,0,0)" xlink:href="#aU"/><use transform="matrix(0.05,0,0,0.05,10,0)" xlink:href="#aV"/></g><g id="C"><use transform="matrix(0.05,0,0,0.05,0,0)" xlink:href="#aF"/><use transform="matrix(0.05,0,0,0.05,9,0)" xlink:href="#am"/><use transform="matrix(0.05,0,0,0.05,14,0)" xlink:href="#aH"/><use transform="matrix(0.05,0,0,0.05,24,0)" xlink:href="#aO"/><use transform="matrix(0.05,0,0,0.05,33,0)" xlink:href="#aM"/><use transform="matrix(0.05,0,0,0.05,42,0)" xlink:href="#ao"/></g><g id="D"><use transform="matrix(0.05,0,0,0.05,0,0)" xlink:href="#aN"/><use transform="matrix(0.05,0,0,0.05,5,0)" xlink:href="#aB"/><use transform="matrix(0.05,0,0,0.05,15,0)" xlink:href="#am"/><use transform="matrix(0.05,0,0,0.05,20,0)" xlink:href="#an"/><use transform="matrix(0.05,0,0,0.05,30,0)" xlink:href="#aD"/><use transform="matrix(0.05,0,0,0.05,40,0)" xlink:href="#an"/><use transform="matrix(0.05,0,0,0.05,50,0)" xlink:href="#aC"/></g><path d="M209 0H11v-25l151-195H24v-28h176v25L50-27h159V0" id="aW"/><g id="E"><use transform="matrix(0.05,0,0,0.05,0,0)" xlink:href="#aW"/><use transform="matrix(0.05,0,0,0.05,10.950000000000001,0)" xlink:href="#T"/><use transform="matrix(0.05,0,0,0.05,24.950000000000003,0)" xlink:href="#W"/><use transform="matrix(0.05,0,0,0.05,37.900000000000006,0)" xlink:href="#V"/><use transform="matrix(0.05,0,0,0.05,49.900000000000006,0)" xlink:href="#Y"/></g><path d="M205 0l-28-72H64L36 0H1l101-248h38L239 0h-34zm-38-99l-47-123c-12 45-31 82-46 123h93" id="aX"/><g id="F"><use transform="matrix(0.05,0,0,0.05,0,0)" xlink:href="#at"/><use transform="matrix(0.05,0,0,0.05,12.950000000000001,0)" xlink:href="#aX"/><use transform="matrix(0.05,0,0,0.05,23.6,0)" xlink:href="#X"/><use transform="matrix(0.05,0,0,0.05,34.550000000000004,0)" xlink:href="#V"/><use transform="matrix(0.05,0,0,0.05,46.550000000000004,0)" xlink:href="#Y"/></g><g id="G"><use transform="matrix(0.05,0,0,0.05,0,0)" xlink:href="#av"/><use transform="matrix(0.05,0,0,0.05,10,0)" xlink:href="#aA"/><use transform="matrix(0.05,0,0,0.05,15,0)" xlink:href="#Z"/><use transform="matrix(0.05,0,0,0.05,20,0)" xlink:href="#ai"/><use transform="matrix(0.05,0,0,0.05,30,0)" xlink:href="#au"/><use transform="matrix(0.05,0,0,0.05,40.95,0)" xlink:href="#ah"/><use transform="matrix(0.05,0,0,0.05,46.900000000000006,0)" xlink:href="#aj"/><use transform="matrix(0.05,0,0,0.05,56.900000000000006,0)" xlink:href="#Z"/><use transform="matrix(0.05,0,0,0.05,61.900000000000006,0)" xlink:href="#aa"/><use transform="matrix(0.05,0,0,0.05,72.85000000000001,0)" xlink:href="#ab"/></g><g id="H"><use transform="matrix(0.05,0,0,0.05,0,0)" xlink:href="#ac"/><use transform="matrix(0.05,0,0,0.05,12.950000000000001,0)" xlink:href="#ac"/><use transform="matrix(0.05,0,0,0.05,25.900000000000002,0)" xlink:href="#ad"/><use transform="matrix(0.05,0,0,0.05,30.900000000000002,0)" xlink:href="#ae"/></g><path d="M67-93c0 74 22 123 53 168H70C40 30 18-18 18-93s22-123 52-168h50c-32 44-53 94-53 168" id="aY"/><path d="M135-194c53 0 70 44 70 98 0 56-19 98-73 100-31 1-45-17-59-34 3 33 2 69 2 105H25l-1-265h48c2 10 0 23 3 31 11-24 29-35 60-35zM114-30c33 0 39-31 40-66 0-38-9-64-40-64-56 0-55 130 0 130" id="aZ"/><g id="I"><use transform="matrix(0.05,0,0,0.05,0,0)" xlink:href="#aY"/><use transform="matrix(0.05,0,0,0.05,5.95,0)" xlink:href="#aL"/><use transform="matrix(0.05,0,0,0.05,16.900000000000002,0)" xlink:href="#aZ"/><use transform="matrix(0.05,0,0,0.05,27.85,0)" xlink:href="#ah"/><use transform="matrix(0.05,0,0,0.05,33.800000000000004,0)" xlink:href="#Z"/><use transform="matrix(0.05,0,0,0.05,38.800000000000004,0)" xlink:href="#aL"/><use transform="matrix(0.05,0,0,0.05,49.75000000000001,0)" xlink:href="#au"/><use transform="matrix(0.05,0,0,0.05,60.70000000000002,0)" xlink:href="#ag"/><use transform="matrix(0.05,0,0,0.05,70.70000000000002,0)" xlink:href="#aA"/><use transform="matrix(0.05,0,0,0.05,75.70000000000002,0)" xlink:href="#ab"/></g><path d="M85 4C-2 5 27-109 22-190h50c7 57-23 150 33 157 60-5 35-97 40-157h50l1 190h-47c-2-12 1-28-3-38-12 25-28 42-61 42" id="ba"/><path d="M102-93c0 74-22 123-52 168H0C30 29 54-18 53-93c0-74-22-123-53-168h50c30 45 52 94 52 168" id="bb"/><g id="J"><use transform="matrix(0.05,0,0,0.05,0,0)" xlink:href="#ah"/><use transform="matrix(0.05,0,0,0.05,5.95,0)" xlink:href="#af"/><use transform="matrix(0.05,0,0,0.05,12.949999999999998,0)" xlink:href="#ba"/><use transform="matrix(0.05,0,0,0.05,23.9,0)" xlink:href="#ai"/><use transform="matrix(0.05,0,0,0.05,33.9,0)" xlink:href="#bb"/></g><path d="M12 0v-35l95-120H19v-35h142v35L67-36h103V0H12" id="bc"/><g id="K"><use transform="matrix(0.05,0,0,0.05,0,0)" xlink:href="#bc"/><use transform="matrix(0.05,0,0,0.05,9,0)" xlink:href="#aL"/><use transform="matrix(0.05,0,0,0.05,19.950000000000003,0)" xlink:href="#au"/><use transform="matrix(0.05,0,0,0.05,30.900000000000006,0)" xlink:href="#ai"/><use transform="matrix(0.05,0,0,0.05,40.900000000000006,0)" xlink:href="#aj"/><use transform="matrix(0.05,0,0,0.05,50.900000000000006,0)" xlink:href="#Z"/><use transform="matrix(0.05,0,0,0.05,55.900000000000006,0)" xlink:href="#aa"/><use transform="matrix(0.05,0,0,0.05,66.85000000000001,0)" xlink:href="#ab"/></g><g id="L"><use transform="matrix(0.05,0,0,0.05,0,0)" xlink:href="#aF"/><use transform="matrix(0.05,0,0,0.05,9,0)" xlink:href="#aO"/><use transform="matrix(0.05,0,0,0.05,18,0)" xlink:href="#al"/><use transform="matrix(0.05,0,0,0.05,28,0)" xlink:href="#aQ"/><use transform="matrix(0.05,0,0,0.05,31.950000000000003,0)" xlink:href="#an"/><use transform="matrix(0.05,0,0,0.05,41.95,0)" xlink:href="#ao"/><use transform="matrix(0.05,0,0,0.05,46.95,0)" xlink:href="#aU"/><use transform="matrix(0.05,0,0,0.05,56.95,0)" xlink:href="#aV"/></g><g id="M"><use transform="matrix(0.05,0,0,0.05,0,0)" xlink:href="#aK"/><use transform="matrix(0.05,0,0,0.05,12,0)" xlink:href="#at"/><use transform="matrix(0.05,0,0,0.05,24.950000000000003,0)" xlink:href="#T"/><use transform="matrix(0.05,0,0,0.05,38.95,0)" xlink:href="#ap"/><use transform="matrix(0.05,0,0,0.05,51.900000000000006,0)" xlink:href="#as"/><use transform="matrix(0.05,0,0,0.05,64.85000000000001,0)" xlink:href="#aJ"/><use transform="matrix(0.05,0,0,0.05,77.80000000000001,0)" xlink:href="#X"/><use transform="matrix(0.05,0,0,0.05,88.75000000000001,0)" xlink:href="#aI"/><use transform="matrix(0.05,0,0,0.05,98.75000000000001,0)" xlink:href="#S"/><use transform="matrix(0.05,0,0,0.05,113.7,0)" xlink:href="#T"/><use transform="matrix(0.05,0,0,0.05,127.7,0)" xlink:href="#U"/><use transform="matrix(0.05,0,0,0.05,139.70000000000002,0)" xlink:href="#V"/><use transform="matrix(0.05,0,0,0.05,151.70000000000002,0)" xlink:href="#S"/><use transform="matrix(0.05,0,0,0.05,166.65,0)" xlink:href="#V"/><use transform="matrix(0.05,0,0,0.05,178.65,0)" xlink:href="#W"/><use transform="matrix(0.05,0,0,0.05,191.6,0)" xlink:href="#X"/><use transform="matrix(0.05,0,0,0.05,202.54999999999998,0)" xlink:href="#Y"/></g><path d="M128 0H69L1-190h53L99-40l48-150h52" id="bd"/><g id="N"><use transform="matrix(0.05,0,0,0.05,0,0)" xlink:href="#ax"/><use transform="matrix(0.05,0,0,0.05,16,0)" xlink:href="#aL"/><use transform="matrix(0.05,0,0,0.05,26.950000000000003,0)" xlink:href="#bd"/><use transform="matrix(0.05,0,0,0.05,36.95,0)" xlink:href="#ai"/><use transform="matrix(0.05,0,0,0.05,46.95,0)" xlink:href="#ax"/><use transform="matrix(0.05,0,0,0.05,62.95,0)" xlink:href="#ai"/><use transform="matrix(0.05,0,0,0.05,72.95,0)" xlink:href="#au"/><use transform="matrix(0.05,0,0,0.05,83.9,0)" xlink:href="#ah"/><use transform="matrix(0.05,0,0,0.05,89.85000000000001,0)" xlink:href="#aj"/><use transform="matrix(0.05,0,0,0.05,99.85000000000001,0)" xlink:href="#Z"/><use transform="matrix(0.05,0,0,0.05,104.85000000000001,0)" xlink:href="#aa"/><use transform="matrix(0.05,0,0,0.05,115.80000000000001,0)" xlink:href="#ab"/></g><g id="O"><use transform="matrix(0.05,0,0,0.05,0,0)" xlink:href="#aZ"/><use transform="matrix(0.05,0,0,0.05,10.950000000000001,0)" xlink:href="#af"/><use transform="matrix(0.05,0,0,0.05,17.950000000000003,0)" xlink:href="#aL"/><use transform="matrix(0.05,0,0,0.05,28.900000000000006,0)" xlink:href="#aa"/><use transform="matrix(0.05,0,0,0.05,39.85000000000001,0)" xlink:href="#ba"/><use transform="matrix(0.05,0,0,0.05,50.80000000000001,0)" xlink:href="#av"/><use transform="matrix(0.05,0,0,0.05,60.80000000000001,0)" xlink:href="#ah"/><use transform="matrix(0.05,0,0,0.05,66.75000000000001,0)" xlink:href="#aj"/><use transform="matrix(0.05,0,0,0.05,76.75000000000001,0)" xlink:href="#Z"/><use transform="matrix(0.05,0,0,0.05,81.75000000000001,0)" xlink:href="#aa"/><use transform="matrix(0.05,0,0,0.05,92.70000000000002,0)" xlink:href="#ab"/></g><path d="M145-31C134-9 116 4 85 4 32 4 16-35 15-94c0-59 17-99 70-100 32-1 48 14 60 33 0-11-1-24 2-32h30l-1 268h-32zM93-21c41 0 51-33 51-76s-8-73-50-73c-40 0-46 35-46 75s5 74 45 74" id="be"/><path d="M84 4C-5 8 30-112 23-190h32v120c0 31 7 50 39 49 72-2 45-101 50-169h31l1 190h-30c-1-10 1-25-2-33-11 22-28 36-60 37" id="bf"/><path d="M179-190L93 31C79 59 56 82 12 73V49c39 6 53-20 64-50L1-190h34L92-34l54-156h33" id="bg"/><g id="P"><use transform="matrix(0.05,0,0,0.05,0,0)" xlink:href="#be"/><use transform="matrix(0.05,0,0,0.05,10,0)" xlink:href="#bf"/><use transform="matrix(0.05,0,0,0.05,20,0)" xlink:href="#al"/><use transform="matrix(0.05,0,0,0.05,30,0)" xlink:href="#aB"/><use transform="matrix(0.05,0,0,0.05,40,0)" xlink:href="#am"/><use transform="matrix(0.05,0,0,0.05,45,0)" xlink:href="#aq"/><use transform="matrix(0.05,0,0,0.05,48.95,0)" xlink:href="#am"/><use transform="matrix(0.05,0,0,0.05,53.95,0)" xlink:href="#bg"/><use transform="matrix(0.05,0,0,0.05,62.95,0)" xlink:href="#ao"/></g><g id="Q"><use transform="matrix(0.05,0,0,0.05,0,0)" xlink:href="#am"/><use transform="matrix(0.05,0,0,0.05,5,0)" xlink:href="#aH"/><use transform="matrix(0.05,0,0,0.05,15,0)" xlink:href="#am"/><use transform="matrix(0.05,0,0,0.05,20,0)" xlink:href="#al"/><use transform="matrix(0.05,0,0,0.05,30,0)" xlink:href="#aQ"/><use transform="matrix(0.05,0,0,0.05,33.95,0)" xlink:href="#ao"/></g><g id="R"><use transform="matrix(0.05,0,0,0.05,0,0)" xlink:href="#U"/><use transform="matrix(0.05,0,0,0.05,11.65,0)" xlink:href="#aq"/><use transform="matrix(0.05,0,0,0.05,15.600000000000001,0)" xlink:href="#aC"/><use transform="matrix(0.05,0,0,0.05,21.55,0)" xlink:href="#am"/><use transform="matrix(0.05,0,0,0.05,26.55,0)" xlink:href="#bf"/><use transform="matrix(0.05,0,0,0.05,36.55,0)" xlink:href="#al"/><use transform="matrix(0.05,0,0,0.05,46.55,0)" xlink:href="#aQ"/></g></defs></g></svg>